<?xml version="1.0" encoding="UTF-8"?>
<svg width="752pt" height="752pt" version="1.1" viewBox="0 0 752 752" xmlns="http://www.w3.org/2000/svg">
 <g>
  <path d="m559.94 314.86c-0.94141-1.3984-23.438-34.215-53.223-34.215-12.168 0-23.812 2.8711-33.219 7.9844-3.4492-7.5508-7.7383-14.543-12.688-20.949 10.754-45.801 38.859-98.699 38.859-98.699s-56.129 28.949-75.461 68.598c-14.594-7.3125-30.984-11.402-48.203-11.402-17.215 0-33.605 4.0938-48.199 11.402-19.332-39.648-75.465-68.598-75.465-68.598s28.109 52.902 38.863 98.703c-4.9453 6.4062-9.2383 13.398-12.684 20.945-9.4102-5.1094-21.051-7.9844-33.219-7.9844-29.789 0-52.285 32.816-53.227 34.215-2.2539 3.332-2.2539 7.6992 0 11.035 0.94141 1.3984 23.441 34.215 53.227 34.215 9.0273 0 17.684-1.5273 25.406-4.4141l10.5 78.602c0.30469 41.996 29.414 78.277 59.617 95.652 9.9688 23.324 35.18 53.078 35.18 53.078s26.469-30.465 36.164-53.668c29.844-17.59 58.324-53.52 58.633-95.062l10.504-78.598c7.7227 2.8867 16.383 4.4141 25.406 4.4141 29.789 0 52.281-32.816 53.223-34.215 2.2539-3.3359 2.2539-7.7031 0.003906-11.039zm-53.227 25.531c-10.59 0-20.613-2.8867-27.496-7.9219-2.8086-2.0508-6.4883-2.4766-9.6914-1.1094-3.1992 1.3672-5.4414 4.3164-5.9023 7.7617l-12.453 93.195c-0.058594 0.43359-0.085938 0.87109-0.085938 1.3047 0 43.789-38.852 78.363-65.219 85.957v-36.598h5.6992c5.4453 0 9.8594-4.4141 9.8594-9.8594 0-5.4453-4.4141-9.8594-9.8594-9.8594h-31.125c-5.4453 0-9.8594 4.4141-9.8594 9.8594 0 5.4453 4.4141 9.8594 9.8594 9.8594h5.6992v36.598c-26.363-7.5938-65.211-42.164-65.211-85.957 0-0.4375-0.03125-0.875-0.085937-1.3047l-12.449-93.195c-0.46484-3.4492-2.707-6.3945-5.9023-7.7617-1.2461-0.53125-2.5586-0.79297-3.8711-0.79297-2.0625 0-4.1016 0.64453-5.8203 1.8984-6.8906 5.0352-16.914 7.9258-27.496 7.9258-12.711 0-25.453-11.637-32.578-19.973 6.3945-7.5 19.109-20.047 32.578-20.047 12.516 0 24.297 4.0977 30.75 10.695 2.4219 2.4766 5.9727 3.5 9.3398 2.6953 3.3711-0.80469 6.0742-3.3242 7.1133-6.6289 11.523-36.625 45.078-61.23 83.504-61.23 38.426 0 71.98 24.605 83.508 61.23 1.0391 3.3047 3.7422 5.8242 7.1094 6.6289 3.3672 0.80469 6.9141-0.21875 9.3438-2.6953 6.4531-6.5977 18.234-10.695 30.75-10.695 12.727 0 25.488 11.668 32.609 20.008-7.1328 8.3477-19.895 20.012-32.617 20.012z"/>
  <path d="m337.79 366.47c0 9.7578-7.9102 17.668-17.664 17.668-9.7578 0-17.668-7.9102-17.668-17.668s7.9102-17.668 17.668-17.668c9.7539 0 17.664 7.9102 17.664 17.668"/>
  <path d="m449.55 366.47c0 9.7578-7.9102 17.668-17.668 17.668-9.7578 0-17.668-7.9102-17.668-17.668s7.9102-17.668 17.668-17.668c9.7578 0 17.668 7.9102 17.668 17.668"/>
 </g>
</svg>
